<?xml version="1.0" encoding="utf-8"?>
<!-- Generator: Adobe Illustrator 13.0.1, SVG Export Plug-In . SVG Version: 6.00 Build 14948)  -->
<!DOCTYPE svg PUBLIC "-//W3C//DTD SVG 1.1//EN" "http://www.w3.org/Graphics/SVG/1.1/DTD/svg11.dtd">
<svg version="1.1" id="Capa_1" xmlns="http://www.w3.org/2000/svg" xmlns:xlink="http://www.w3.org/1999/xlink" x="0px" y="0px"
	 width="66.416px" height="56.285px" viewBox="0 0 66.416 56.285" enable-background="new 0 0 66.416 56.285" xml:space="preserve">
<path fill="#FFFFFF" d="M16.187,5.25H3.853c-0.644,0-1.167,0.522-1.167,1.167v45.12c0,0.644,0.522,1.166,1.167,1.166h12.334
	c0.644,0,1.167-0.522,1.167-1.166V6.417C17.354,5.772,16.831,5.25,16.187,5.25z M15.021,50.369h-10V7.583h10V50.369z M9.932,47.714
	c1.973,0,3.579-1.605,3.579-3.578c0-1.974-1.605-3.579-3.579-3.579c-1.973,0-3.578,1.605-3.578,3.579
	C6.354,46.108,7.959,47.714,9.932,47.714z M9.932,41.724c1.33,0,2.412,1.082,2.412,2.412s-1.082,2.411-2.412,2.411
	c-1.33,0-2.411-1.081-2.411-2.411S8.602,41.724,9.932,41.724z M13.202,9.774H6.837v26.02h6.365V9.774z M12.619,35.211H7.42V10.357
	h5.198V35.211z M49.099,39.525c-1.929,0.414-3.162,2.32-2.747,4.249c0.351,1.639,1.821,2.828,3.494,2.828
	c0.252,0,0.506-0.026,0.755-0.08c1.929-0.414,3.162-2.321,2.748-4.252c-0.352-1.638-1.821-2.826-3.494-2.826
	C49.601,39.444,49.347,39.472,49.099,39.525z M52.208,42.516c0.279,1.302-0.552,2.587-1.853,2.866
	c-0.168,0.036-0.34,0.054-0.51,0.054c-1.127,0-2.117-0.801-2.354-1.906c-0.278-1.3,0.553-2.584,1.853-2.863
	c0.169-0.036,0.34-0.055,0.511-0.055C50.98,40.611,51.971,41.412,52.208,42.516z M29.845,9.774H23.48v26.02h6.365V9.774z
	 M29.262,35.211h-5.198V10.357h5.198V35.211z M39.606,10.079l5.467,25.439l6.222-1.337L45.83,8.741L39.606,10.079z M45.521,34.825
	L40.3,10.526l5.082-1.093l5.221,24.299L45.521,34.825z M58.66,48.699L49.183,4.586c-0.064-0.302-0.247-0.567-0.507-0.735
	s-0.577-0.226-0.878-0.161L35.739,6.282c-0.63,0.135-1.031,0.755-0.896,1.386l9.478,44.114c0.064,0.302,0.247,0.566,0.507,0.734
	c0.19,0.123,0.41,0.187,0.633,0.187c0.082,0,0.164-0.008,0.245-0.025l12.059-2.592C58.395,49.95,58.796,49.329,58.66,48.699z
	 M46.356,50.149L37.37,8.318l9.777-2.101l8.987,41.832L46.356,50.149z M26.575,47.714c1.973,0,3.579-1.605,3.579-3.578
	c0-1.974-1.605-3.579-3.579-3.579s-3.579,1.605-3.579,3.579C22.996,46.108,24.602,47.714,26.575,47.714z M26.575,41.724
	c1.33,0,2.412,1.082,2.412,2.412s-1.082,2.411-2.412,2.411s-2.413-1.081-2.413-2.411S25.245,41.724,26.575,41.724z M32.83,5.25
	H20.495c-0.644,0-1.167,0.522-1.167,1.167v45.12c0,0.644,0.522,1.166,1.167,1.166H32.83c0.644,0,1.166-0.522,1.166-1.166V6.417
	C33.996,5.772,33.474,5.25,32.83,5.25z M31.663,50.369H21.662V7.583h10.001V50.369z"/>
</svg>
